HIERARCHY
ROOT Hips
{
  OFFSET 40.9192 92.6879 18.85
  CHANNELS 6 Xposition Yposition Zposition Zrotation Xrotation Yrotation
  JOINT LeftUpLeg
  {
    OFFSET 8.64259 1.95398 -2.38835
    CHANNELS 3 Zrotation Xrotation Yrotation
    JOINT LeftLeg
    {
      OFFSET 43.7702 0 0
      CHANNELS 3 Zrotation Xrotation Yrotation
      JOINT LeftFoot
      {
        OFFSET 40.6238 0 0
        CHANNELS 3 Zrotation Xrotation Yrotation
        JOINT LeftToeBase
        {
          OFFSET 12.7242 0 0
          CHANNELS 3 Zrotation Xrotation Yrotation
          End Site
          {
            OFFSET 0 0 0
          }
        }
      }
    }
  }
  JOINT RightUpLeg
  {
    OFFSET -8.2249 1.95398 -2.59336
    CHANNELS 3 Zrotation Xrotation Yrotation
    JOINT RightLeg
    {
      OFFSET 43.5653 0 0
      CHANNELS 3 Zrotation Xrotation Yrotation
      JOINT RightFoot
      {
        OFFSET 40.6238 0 0
        CHANNELS 3 Zrotation Xrotation Yrotation
        JOINT RightToeBase
        {
          OFFSET 12.7242 0 0
          CHANNELS 3 Zrotation Xrotation Yrotation
          End Site
          {
            OFFSET 0 0 0
          }
        }
      }
    }
  }
  JOINT Spine
  {
    OFFSET 0.165834 0.87714 6.61349
    CHANNELS 3 Zrotation Xrotation Yrotation
    JOINT Spine1
    {
      OFFSET 7.38963 1.71661e-005 0
      CHANNELS 3 Zrotation Xrotation Yrotation
      JOINT Spine2
      {
        OFFSET 11.9445 1.14441e-005 0
        CHANNELS 3 Zrotation Xrotation Yrotation
        JOINT Spine3
        {
          OFFSET 14.7254 4.19617e-005 0
          CHANNELS 3 Zrotation Xrotation Yrotation
          JOINT Spine4
          {
            OFFSET 10.9679 0 0
            CHANNELS 3 Zrotation Xrotation Yrotation
            JOINT RightShoulder
            {
              OFFSET 2.46616 -1.6653 3.69651
              CHANNELS 3 Zrotation Xrotation Yrotation
              JOINT RightArm
              {
                OFFSET 13.0012 0 0
                CHANNELS 3 Zrotation Xrotation Yrotation
                JOINT RightForeArm
                {
                  OFFSET 28.7848 1.52588e-005 0
                  CHANNELS 3 Zrotation Xrotation Yrotation
                  JOINT RightHand
                  {
                    OFFSET 26.5688 1.52588e-005 0
                    CHANNELS 3 Zrotation Xrotation Yrotation
                    End Site
                    {
                      OFFSET 0 0 0
                    }
                  }
                }
              }
            }
            JOINT LeftShoulder
            {
              OFFSET 2.38034 -1.29275 -3.7523
              CHANNELS 3 Zrotation Xrotation Yrotation
              JOINT LeftArm
              {
                OFFSET 16.3182 6.10351e-005 0
                CHANNELS 3 Zrotation Xrotation Yrotation
                JOINT LeftForeArm
                {
                  OFFSET 27.0901 0 0
                  CHANNELS 3 Zrotation Xrotation Yrotation
                  JOINT LeftHand
                  {
                    OFFSET 24.5451 1.52588e-005 0
                    CHANNELS 3 Zrotation Xrotation Yrotation
                    End Site
                    {
                      OFFSET 0 0 0
                    }
                  }
                }
              }
            }
            JOINT Neck
            {
              OFFSET 5.0226 -0.0266342 0
              CHANNELS 3 Zrotation Xrotation Yrotation
              JOINT Head
              {
                OFFSET 6.69363 2.86102e-005 0
                CHANNELS 3 Zrotation Xrotation Yrotation
                End Site
                {
                  OFFSET 0 0 0
                }
              }
            }
          }
        }
      }
    }
  }
}
MOTION
Frames:	7
Frame Time:	0.0416667
-288.996 81.0516 -282.134 93.1801 -47.1099 89.9581 -169.514 40.5311 89.1348 -62.4479 18.7246 -10.3421 80.0091 9.58663 2.51277 32.4073 2.39244 8.88394 -178.05 51.7932 89.5501 -78.1465 -14.8633 -1.12418 80.2055 -12.0061 -5.17404 -106.091 -6.08659 -3.50627 0.478148 8.10435 -89.366 10.6578 1.24421 1.14714 -1.01303 1.29348 1.09126 -23.5467 0.84196 1.46801 -3.53401 0.841944 1.46799 93.4366 -44.1564 -96.594 29.7482 -9.87746 1.49698 -15.383 -19.9208 -59.826 -11.8388 -1.1043 3.98577 -91.9928 -51.0043 76.0032 -31.5663 12.9273 18.3275 3.04734 16.0181 -25.5236 9.11993 0.960012 6.04146 10.1982 1.91452 1.32252 -0.386727 1.61667 0.127452 
-286.545 82.3707 -279.909 87.7207 -53.4166 84.4533 -166.81 38.841 89.3533 -58.6738 16.9448 -13.8179 80.0103 12.1098 6.24596 29.9666 0.510353 4.89065 -171.796 52.0775 88.3219 -79.2825 -15.9025 -2.63819 85.2748 -13.421 -5.05732 -111.434 -15.4294 -1.14237 1.12169 7.64832 -89.0923 11.5576 2.65645 1.53876 -0.111361 2.72159 1.42029 -22.654 2.07126 2.26604 -2.64138 2.07125 2.26603 94.1346 -44.4435 -95.3837 30.9985 -10.4502 3.67643 -13.7207 -20.5955 -57.8085 -12.0411 -1.0499 3.43917 -92.4384 -50.1272 75.1285 -31.6382 12.7137 16.588 2.84718 15.5706 -24.8972 7.09663 0.83924 6.79448 9.81585 1.68608 1.07414 -1.11302 1.44482 0.082507 
-283.828 85.1558 -277.932 87.9797 -52.8335 84.4719 -167.651 33.1502 87.8757 -53.143 14.7077 -12.3212 78.128 11.2933 6.46059 28.8814 -0.104589 1.82215 -173.175 46.4632 88.2147 -79.3817 -18.1251 -3.20496 93.0996 -16.0141 -5.66241 -116.396 -29.2238 1.66367 0.853326 7.63724 -89.0966 11.5828 2.1205 1.58103 -0.0872396 2.18801 1.48615 -22.6229 1.5474 2.14514 -2.61027 1.54741 2.14514 94.7031 -44.8461 -94.376 31.5059 -11.4526 5.06052 -12.6682 -21.6684 -56.2469 -10.6872 -1.05685 4.04708 -92.2676 -49.5667 75.2394 -31.8033 12.4345 13.9541 3.30063 14.7434 -25.8621 6.60718 0.696289 5.63175 10.2608 2.3963 0.84021 -1.65418 2.19101 0.350527 
-280.796 88.5095 -275.548 89.2569 -52.0346 85.9818 -169.542 25.5568 86.69 -45.2961 12.3067 -9.22963 75.8609 10.2143 7.01729 28.7537 -0.13561 1.11905 -175.655 39.0177 89.1453 -77.0248 -19.5516 -3.67296 98.6832 -17.8949 -5.79501 -117.613 -33.4762 2.41665 0.618102 7.66279 -89.1913 11.5361 1.60796 1.44669 -0.134601 1.67009 1.37452 -22.6676 1.09893 1.86299 -2.65496 1.09892 1.86299 94.3938 -46.1988 -94.6593 31.4979 -11.6554 7.97881 -11.643 -21.9578 -53.967 -9.86917 -0.909013 3.09466 -92.8409 -49.0897 74.2581 -30.733 13.4277 11.3807 3.09791 13.3376 -28.0324 8.52958 0.768617 4.61082 9.4686 2.736 0.190074 -1.19498 2.68289 1.06336 
-276.938 92.001 -272.626 89.8964 -50.74 88.0152 -170.77 17.289 86.6796 -35.3353 12.6295 -6.30548 71.706 7.77097 7.32036 30.885 1.57277 1.24118 -178.739 31.1632 90.4286 -70.4902 -19.0564 -3.65028 98.5977 -17.3447 -5.31836 -114.289 -21.8817 0.219159 0.35419 7.68709 -89.4597 11.4947 0.957301 0.978623 -0.176201 0.999431 0.935534 -22.7098 0.61894 1.22106 -2.69715 0.618958 1.22106 94.9083 -46.5639 -93.7695 31.6888 -11.3129 10.6607 -11.9261 -23.9386 -51.6938 -8.67522 -0.805174 2.35365 -94.5637 -49.2502 71.7321 -28.5334 14.4366 9.67813 3.1125 11.0117 -32.5586 11.6632 0.873929 3.45281 9.35824 2.8372 -0.433381 -1.6553 2.94003 2.51095 
-273.204 94.3461 -269.189 89.9145 -48.8093 89.0059 -171.405 9.652 87.1215 -26.075 13.1429 -4.69784 68.5636 6.14719 5.91804 32.0079 2.4186 2.29412 178.535 25.8051 91.083 -61.738 -14.6904 -2.79782 88.752 -13.267 -4.97934 -82.2244 2.52858 -8.73839 0.0148351 7.68459 -89.642 11.5031 0.196906 0.693148 -0.168044 0.227233 0.683807 -22.7017 -0.0205116 0.720282 -2.68905 -0.020517 0.720278 95.605 -46.6684 -92.6296 32.1197 -11.0103 12.7982 -13.3743 -26.9903 -51.1092 -6.83241 -0.910042 4.84136 -93.7794 -48.491 72.6847 -26.7976 15.7077 6.2237 4.87134 11.058 -38.1385 14.2094 1.28294 5.07445 8.85651 3.19529 -0.898119 -1.70193 3.37933 2.55127 
-269.558 95.3129 -265.698 89.0309 -47.1975 88.3884 -171.772 4.20264 87.2821 -19.7546 15.4041 -4.35121 65.7983 4.9439 6.54772 34.2658 4.22041 4.14401 176.918 25.6342 91.0139 -51.3846 -5.12971 -1.70568 66.9365 -4.4938 -2.47828 15.9475 4.47519 -15.3164 -0.297212 7.65535 -89.6303 11.564 -0.418303 0.779741 -0.107075 -0.383573 0.797392 -22.6415 -0.633299 0.617982 -2.62884 -0.6333 0.617988 95.6646 -47.8534 -92.373 31.5277 -10.027 15.0765 -11.5353 -26.9386 -49.0609 2.90853 -0.394018 4.71761 -93.131 -46.3836 73.0739 -25.1495 15.8173 2.967 5.90896 9.26714 -42.7566 15.0636 1.03073 2.88819 9.16447 2.99168 -2.75512 -2.29548 3.54559 3.50546 
